<svg xmlns="http://www.w3.org/2000/svg" viewBox="0 0 512 640" x="0px" y="0px"><path d="M288,144a24,24,0,1,0-24-24A24.028,24.028,0,0,0,288,144Zm0-32a8,8,0,1,1-8,8A8.009,8.009,0,0,1,288,112Z"/><path d="M488,16H280a8,8,0,0,0-8,8V48a8,8,0,0,0-8,8v4.687l-2.343-2.344a8,8,0,0,0-11.314,0l-24,24a8,8,0,0,0,0,11.314L228.687,96H224a8,8,0,0,0-8,8v24H136c-17.47,0-33.669,14.619-39.353,28.839L69.146,216H40a24,24,0,0,0-.409,48C24.247,279.756,16,314.49,16,328V472a24.028,24.028,0,0,0,24,24H72a24.028,24.028,0,0,0,24-24v-8H384v8a24.028,24.028,0,0,0,24,24h32a24.028,24.028,0,0,0,24-24V328c0-6.209-1.474-14.953-3.939-24H488a8,8,0,0,0,8-8V24A8,8,0,0,0,488,16ZM232,112h16a8,8,0,0,0,5.657-13.657L243.313,88,256,75.313l10.343,10.344A8,8,0,0,0,280,80V64h16V80a8,8,0,0,0,13.657,5.657L320,75.313,332.687,88,322.343,98.343A8,8,0,0,0,328,112h16v16H328a8,8,0,0,0-5.657,13.657L332.687,152,320,164.687l-10.343-10.344A8,8,0,0,0,296,160v16H280V160a8,8,0,0,0-13.657-5.657L256,164.687,243.313,152l10.344-10.343A8,8,0,0,0,248,128H232Zm88.336,264h-50.1A19.124,19.124,0,0,0,272,368c0-13.458-14.056-24-32-24s-32,10.542-32,24a19.124,19.124,0,0,0,1.764,8h-50.1A96.127,96.127,0,0,0,64,288H42.753c5.908-12.359,11.086-15.923,13.172-16,.016,0,.031,0,.046,0H272v24a8,8,0,0,0,8,8h83A96.06,96.06,0,0,0,320.336,376ZM416,304h27.411a118.837,118.837,0,0,1,3.82,16H416a64.081,64.081,0,0,0-63.482,56H336.4A80.117,80.117,0,0,1,416,304ZM256,368c0,3.262-6.233,8-16,8s-16-4.738-16-8,6.233-8,16-8S256,364.738,256,368ZM136,144h92.687l-2.344,2.343a8,8,0,0,0,0,11.314L228.686,160H112.836C117.638,151.2,127.76,144,136,144Zm-30.615,32h139.3l5.657,5.657a8,8,0,0,0,11.314,0L264,179.313V184a8,8,0,0,0,8,8v64H68.2ZM32,240a8.012,8.012,0,0,1,8-8H61.708l-7.442,16.009-14.266,0A8.012,8.012,0,0,1,32,240Zm4.6,64H64a80.117,80.117,0,0,1,79.6,72H127.482A64.081,64.081,0,0,0,64,320H32.781A121.882,121.882,0,0,1,36.6,304ZM32,336H64a48.071,48.071,0,0,1,47.321,40H58.667L32,356ZM80,472a8.009,8.009,0,0,1-8,8H40a8.009,8.009,0,0,1-8-8V442.265A63.851,63.851,0,0,0,80,464Zm104-24H80a47.928,47.928,0,0,1-37.783-18.449A39.811,39.811,0,0,0,56,432H184Zm96,0H200V424h80Zm16,0V432H424a39.807,39.807,0,0,0,13.783-2.449A47.927,47.927,0,0,1,400,448Zm152,24a8.009,8.009,0,0,1-8,8H408a8.009,8.009,0,0,1-8-8v-8a63.851,63.851,0,0,0,48-21.735Zm0-80a24.028,24.028,0,0,1-24,24H296a8,8,0,0,0-8-8H192a8,8,0,0,0-8,8H56a24.028,24.028,0,0,1-24-24V376l19.2,14.4A8,8,0,0,0,56,392H424a8,8,0,0,0,4.8-1.6L448,376Zm0-36-26.667,20H368.679A48.071,48.071,0,0,1,416,336h32Zm32-68H288V192h16a8,8,0,0,0,8-8v-4.687l2.343,2.344a8,8,0,0,0,11.314,0l24-24a8,8,0,0,0,0-11.314L347.313,144H352a8,8,0,0,0,8-8V104a8,8,0,0,0-8-8h-4.687l2.344-2.343a8,8,0,0,0,0-11.314l-24-24a8,8,0,0,0-11.314,0L312,60.687V56a8,8,0,0,0-8-8H288V32H480Z"/><path d="M448,152H376a8,8,0,0,0,0,16h72a8,8,0,0,0,0-16Z"/><path d="M448,184H352a8,8,0,0,0,0,16h96a8,8,0,0,0,0-16Z"/><path d="M448,216H320a8,8,0,0,0,0,16H448a8,8,0,0,0,0-16Z"/><path d="M448,248H320a8,8,0,0,0,0,16H448a8,8,0,0,0,0-16Z"/><path d="M448,120H384a8,8,0,0,0,0,16h64a8,8,0,0,0,0-16Z"/><path d="M448,88H384a8,8,0,0,0,0,16h64a8,8,0,0,0,0-16Z"/><path d="M368,72h80a8,8,0,0,0,0-16H368a8,8,0,0,0,0,16Z"/><text x="0" y="527" fill="#000000" font-size="5px" font-weight="bold" font-family="'Helvetica Neue', Helvetica, Arial-Unicode, Arial, Sans-serif">Created by iconixar</text><text x="0" y="532" fill="#000000" font-size="5px" font-weight="bold" font-family="'Helvetica Neue', Helvetica, Arial-Unicode, Arial, Sans-serif">from the Noun Project</text></svg>