<svg xmlns="http://www.w3.org/2000/svg" version="1.1" viewBox="-5.0 -10.0 110.0 135.0">
 <g>
  <path d="m66.969 65.25c-0.15625-4.0781-0.28125-7.0156-3.1719-8.4531-0.09375-0.046875-0.1875-0.078125-0.26562-0.09375l-8.9688-2.5469c-3.8438-3.3438-13.609-9.625-19.141-10.047l-15.328 0.14062c-4.8438 0.03125-9.0469 3.1875-10.438 7.8125l-2.5 8.2812c-0.42188 0.64062-0.79688 2.125-0.59375 6.2656 0.015625 0.15625 0.046875 0.29688 0.09375 0.4375l1.4219 4.0312c0.21875 0.625 0.8125 1.0312 1.4688 1.0469l1.4531 0.015625c0.71875 3.2188 3.5938 5.6562 7.0469 5.6562 3.4375 0 6.3125-2.4375 7.0312-5.6562h23.594c0.71875 3.2188 3.5938 5.6562 7.0312 5.6562 3.4531 0 6.3594-2.4531 7.0469-5.7031 0.64062-0.03125 1.7969-0.23438 2.7812-1.1719 1.0781-1.0156 1.5781-2.5625 1.4844-4.5781zm-31.391-17.984c3.5938 0.4375 10.641 4.4219 15.047 7.7344h-15.047zm-22.844 5.4844v-0.015625c1.0781-3.1875 4-5.3438 7.3906-5.3594l7.75-0.078125v7.7031h-13.234c-0.64062 0-1.2344-0.28125-1.5938-0.76562-0.20312-0.25-0.5-0.78125-0.3125-1.4844zm5.3125 20.188c-1.3125 0-2.375-1.0625-2.375-2.3594 0-1.3125 1.0625-2.375 2.375-2.375 1.2969 0 2.3594 1.0625 2.3594 2.375 0 1.2969-1.0625 2.3594-2.3594 2.3594zm12.203-3.9219h-5.1719c-0.71875-3.2344-3.5938-5.6562-7.0312-5.6562-3.4531 0-6.3281 2.4219-7.0469 5.6562l-0.32812-0.015625-1-2.7656c-0.0625-1.75-0.015625-3.5938 0.14062-4.1875 0.09375-0.14062 0.1875-0.29688 0.23438-0.46875l1.375-4.5625c0.90625 0.70312 2.0156 1.1094 3.2188 1.1094h15.609zm25.453 3.9219c-1.3125 0-2.375-1.0625-2.375-2.3594 0-1.3125 1.0625-2.375 2.375-2.375s2.375 1.0625 2.375 2.375c0 1.2969-1.0625 2.3594-2.375 2.3594zm7.6875-4.2969c-0.20312 0.21875-0.46875 0.28125-0.67188 0.3125-0.73438-3.2031-3.5938-5.5938-7.0156-5.5938-3.4375 0-6.3125 2.4219-7.0312 5.6562h-15.297v-10.891h23.75l5.3906 1.5312c1.0312 0.59375 1.1875 2.0156 1.3281 5.7188l0.046875 1.0938c0.046875 1.0312-0.125 1.7969-0.5 2.1719z"/>
  <path d="m39.18 61.492h-2.4766c-0.86328 0-1.5625 0.69922-1.5625 1.5625 0 0.86328 0.69922 1.5625 1.5625 1.5625h2.4766c0.86328 0 1.5625-0.69922 1.5625-1.5625 0-0.86328-0.69922-1.5625-1.5625-1.5625z"/>
  <path d="m84.469 22.203c-4.9688 0-9.0156 4.0469-9.0156 9.0156 0 5.7969 7.0781 13.328 7.8906 14.172 0.29688 0.29688 0.70312 0.46875 1.125 0.46875s0.82812-0.17188 1.125-0.46875c0.8125-0.84375 7.875-8.375 7.875-14.172 0-4.9688-4.0312-9.0156-9-9.0156zm0 11.047c-1.3125 0-2.375-1.0625-2.375-2.375 0-1.2969 1.0625-2.3594 2.375-2.3594 1.2969 0 2.3594 1.0625 2.3594 2.3594 0 1.3125-1.0625 2.375-2.3594 2.375z"/>
  <path d="m84.469 48.57c-0.86328 0-1.5625 0.69922-1.5625 1.5625v3.125c0 0.86328 0.69922 1.5625 1.5625 1.5625s1.5625-0.69922 1.5625-1.5625v-3.125c0-0.86719-0.70312-1.5625-1.5625-1.5625z"/>
  <path d="m69.555 51.598v6.1484c0 0.86328 0.69922 1.5625 1.5625 1.5625 0.86328 0 1.5625-0.69922 1.5625-1.5625v-6.1484c0-0.86328-0.69922-1.5625-1.5625-1.5625-0.86719 0-1.5625 0.69922-1.5625 1.5625z"/>
  <path d="m72.68 66.52v-2.6328c0-0.86328-0.69922-1.5625-1.5625-1.5625-0.86328 0-1.5625 0.69922-1.5625 1.5625v2.6328c0 1.457 0.38281 2.8906 1.1133 4.1406 0.28906 0.5 0.8125 0.77734 1.3516 0.77734 0.26562 0 0.53906-0.070312 0.78516-0.21094 0.74609-0.43359 1-1.3906 0.5625-2.1367-0.45313-0.77734-0.6875-1.668-0.6875-2.5703z"/>
  <path d="m84.469 57.84c-0.86328 0-1.5625 0.69922-1.5625 1.5625v6.1484c0 0.86328 0.69922 1.5625 1.5625 1.5625s1.5625-0.69922 1.5625-1.5625v-6.1484c0-0.86328-0.70312-1.5625-1.5625-1.5625z"/>
  <path d="m81.445 70.098c-1.1211 1.1445-2.7422 1.6875-4.2891 1.4961-0.86328-0.11719-1.6367 0.5-1.7422 1.3594-0.10547 0.85547 0.5 1.6367 1.3594 1.7422 0.33203 0.039063 0.67187 0.0625 1.0195 0.0625 2.2344 0 4.3242-0.87891 5.8867-2.4766 0.60156-0.61719 0.59375-1.6055-0.023438-2.2109-0.61719-0.60156-1.6055-0.58984-2.2109 0.027344z"/>
  <path d="m70.691 46.984c0.65625-0.55859 0.73438-1.5469 0.17188-2.2031-1.7031-1.9961-4.4297-2.9688-6.9492-2.5664-0.85156 0.13672-1.4297 0.9375-1.2969 1.7891 0.13672 0.85156 0.94141 1.4336 1.7891 1.2969 1.4727-0.22656 3.0781 0.33984 4.0781 1.5117 0.30859 0.35938 0.75 0.54688 1.1875 0.54688 0.36328 0 0.72656-0.125 1.0195-0.375z"/>
  <path d="m59.082 52.094c0.86328 0 1.5625-0.69922 1.5625-1.5625v-0.82812c0-0.57812 0.10547-1.1367 0.32031-1.6602 0.32031-0.80078-0.066406-1.7109-0.86719-2.0352-0.80078-0.32031-1.7109 0.0625-2.0352 0.86719-0.35938 0.89844-0.54688 1.8516-0.54688 2.8281v0.82812c0.003906 0.86719 0.70312 1.5625 1.5664 1.5625z"/>
 </g>
<text x="0.0" y="117.5" font-size="5.0" font-weight="bold" font-family="Arbeit Regular, Helvetica, Arial-Unicode, Arial, Sans-serif" fill="#000000">Created by AB Designs</text><text x="0.0" y="122.5" font-size="5.0" font-weight="bold" font-family="Arbeit Regular, Helvetica, Arial-Unicode, Arial, Sans-serif" fill="#000000">from Noun Project</text></svg>