<svg xmlns="http://www.w3.org/2000/svg" xmlns:xlink="http://www.w3.org/1999/xlink" version="1.1" x="0px" y="0px" viewBox="0 0 100 125" enable-background="new 0 0 100 100" xml:space="preserve"><g><path d="M50.25,45.008c10.468,0,18.984-8.516,18.984-18.983c0-10.468-8.517-18.984-18.984-18.984   c-10.468,0-18.985,8.516-18.985,18.984C31.265,36.492,39.782,45.008,50.25,45.008z"/><path d="M17.89,60.125c-0.048-1.666-1.554-3.004-3.415-3.004c-1.89,0-3.423,1.381-3.423,3.085v6.646h2.122   C14.519,64.481,16.095,62.229,17.89,60.125z"/><path d="M90.032,67.855v-6.646c0-1.704-1.533-3.086-3.424-3.086c-1.549,0-2.842,0.934-3.265,2.205   c1.97,2.337,3.657,4.865,5.074,7.527H90.032z"/><path d="M73.358,86.121c0-0.857,0.211-1.664,0.569-2.384h-9.063c-0.291-0.836-0.641-1.644-1.064-2.407l9.601-8.52   c0.219-2.766,2.512-4.955,5.331-4.955h4.454h1.819c-0.568-0.969-1.175-1.914-1.819-2.829c-0.896-1.272-1.857-2.495-2.892-3.652   c-0.048-0.061-0.083-0.128-0.136-0.187c-0.046-0.053-0.102-0.09-0.149-0.139c-7.306-8-17.815-13.028-29.478-13.028   c-11.658,0-22.163,5.024-29.468,13.02c-0.051,0.053-0.11,0.092-0.159,0.147c-0.049,0.055-0.082,0.119-0.128,0.178   c-1.029,1.15-1.985,2.367-2.877,3.631c-0.427,0.605-0.832,1.228-1.226,1.856h1.226h4.454c2.963,0,5.374,2.411,5.374,5.375   c0,0.203-0.027,0.399-0.049,0.596l9.219,8.183c-0.505,0.861-0.928,1.774-1.261,2.731h-8.107c0.119,0.443,0.198,0.902,0.198,1.382   c0,2.963-2.411,5.374-5.374,5.374H11.49c0.769,1.002,1.966,1.658,3.326,1.658h71.432c0.005,0.001,0.008,0.001,0.012,0.001   s0.007,0,0.009-0.001c0.824,0,1.587-0.246,2.236-0.655h-9.773C75.769,91.496,73.358,89.085,73.358,86.121z M50.25,73.334   c-2.63,0-5.105,0.66-7.274,1.817L30.25,63.857c5.485-4.626,12.561-7.423,20.281-7.423s14.796,2.797,20.281,7.423L57.867,75.347   C55.617,74.071,53.021,73.334,50.25,73.334z"/><path d="M25.227,85.119c0-0.504-0.141-0.97-0.369-1.382c-0.49-0.886-1.421-1.492-2.505-1.492h-2.804h-5.813v-0.742h5.958h2.658   c0.751,0,1.429-0.294,1.94-0.766c0.57-0.525,0.934-1.271,0.934-2.108c0-0.788-0.318-1.501-0.832-2.021   c-0.521-0.526-1.243-0.854-2.042-0.854h-0.857h-4.596h-3.163v-0.653h3.698h4.338h0.58c1.588,0,2.874-1.287,2.874-2.874   c0-0.75-0.294-1.427-0.765-1.939c-0.525-0.571-1.272-0.936-2.109-0.936h-4.454h-2.667h-3.365h-0.814H9.899   c-0.1,0-0.192,0.02-0.289,0.03c-0.153-0.018-0.304-0.03-0.45-0.03c-4.531,0-4.342,9.276-4.342,9.276s-0.01,9.364,4.342,9.364   c0.146,0,0.297-0.012,0.45-0.029c0.097,0.012,0.189,0.029,0.289,0.029h0.714h11.739C23.94,87.993,25.227,86.707,25.227,85.119z"/><path d="M91.924,70.355c-0.146,0-0.298,0.012-0.449,0.029c-0.097-0.01-0.19-0.029-0.29-0.029h-1.152h-0.396h-3.288h-3.163h-4.454   c-0.644,0-1.232,0.22-1.711,0.577c-0.702,0.524-1.162,1.354-1.162,2.298c0,1.586,1.285,2.873,2.873,2.873h0.986h3.932h3.698v0.653   h-3.163h-4.205h-1.248c-0.659,0-1.26,0.23-1.744,0.604c-0.683,0.525-1.129,1.342-1.129,2.27c0,0.393,0.08,0.766,0.222,1.106   c0.433,1.038,1.456,1.769,2.651,1.769h2.827h5.789v0.741h-5.667h-2.949c-0.595,0-1.147,0.181-1.605,0.49   c-0.765,0.517-1.268,1.392-1.268,2.384c0,1.588,1.285,2.875,2.873,2.875h11.596h0.857c0.1,0,0.193-0.019,0.29-0.03   c0.151,0.018,0.304,0.03,0.449,0.03c4.351,0,4.341-9.365,4.341-9.365S96.455,70.355,91.924,70.355z"/></g><text x="0" y="115" fill="#000000" font-size="5px" font-weight="bold" font-family="'Helvetica Neue', Helvetica, Arial-Unicode, Arial, Sans-serif">Created by mungang kim</text><text x="0" y="120" fill="#000000" font-size="5px" font-weight="bold" font-family="'Helvetica Neue', Helvetica, Arial-Unicode, Arial, Sans-serif">from the Noun Project</text></svg>